<?xml version="1.0" standalone="no"?><!-- Generator: Gravit.io --><svg xmlns="http://www.w3.org/2000/svg" xmlns:xlink="http://www.w3.org/1999/xlink" style="isolation:isolate" viewBox="484 283 120 96" width="120" height="96"><g id="Group"><g id="Group"><path d=" M 522.006 322.286 L 527.484 325.832 L 528.898 337.485 L 531.249 356.86 L 506.339 340.734 L 506.698 340.179 L 519.382 320.587 L 520.309 321.187 L 521.85 321 L 522.006 322.286 Z  M 555.614 358.419 L 537.123 360.663 L 531.249 356.86 L 528.898 337.485 L 542.865 335.79 L 553.721 342.818 L 555.614 358.419 Z  M 579.822 359.716 L 582.797 355.12 L 604 322.369 L 604 352.547 L 604 366.531 L 595.928 379 L 595.928 379 L 567.337 379 L 565.447 379 L 557.487 373.846 L 555.614 358.419 L 574.313 356.149 L 579.822 359.716 Z  M 557.487 373.846 L 537.123 360.663 L 555.614 358.419 L 557.487 373.846 Z " fill="rgb(64,178,206)"/></g><g id="Group"><line x1="484" y1="319.107" x2="484" y2="342.934"/><path d=" M 526.006 313.66 L 526.202 315.27 L 526.006 313.66 Z  M 526.006 313.66 L 526.202 315.27 L 526.006 313.66 Z  M 526.006 313.66 L 526.202 315.27 L 526.006 313.66 Z " fill="rgb(210,59,178)"/><line x1="526.006" y1="293.66" x2="526.202" y2="295.27"/><path d=" M 522.369 283.686 L 526.006 313.66 L 523.115 289.835 L 522.369 283.686 Z " fill="rgb(210,59,178)"/><line x1="522.369" y1="283.686" x2="526.006" y2="313.66"/><path d=" M 522.369 283.686 L 526.006 313.66 L 523.115 289.835 L 522.369 283.686 Z " fill="rgb(210,59,178)"/><line x1="522.369" y1="283.686" x2="526.006" y2="313.66"/><path d=" M 484 319.107 L 508.458 283 L 521.357 283 L 532.385 290.47 L 523.115 289.835 L 524.589 301.98 L 497.999 341.235 L 484 342.934 L 484 319.107 Z " fill="rgb(210,59,178)"/><path d=" M 532.094 319.261 L 526.202 315.27 L 526.006 313.66 L 549.601 310.796 L 526.006 313.66 L 524.157 313.884 L 499.055 296.881 L 508.458 283 L 521.357 283 L 522.369 283.686 L 523.115 289.835 L 522.369 283.686 L 548.71 301.528 L 548.789 302.176 L 560.173 309.884 L 560.958 309.797 L 574.569 318.824 L 578.517 350.707 L 578.206 350.496 L 559.686 352.463 L 558.026 336.836 L 558.438 337.111 L 552.532 333.112 L 552.531 333.104 L 547.144 329.455 L 533.298 330.888 L 532.094 319.261 Z " fill="rgb(210,59,178)"/></g></g></svg>